<svg viewBox="0 0 800 800" xmlns="http://www.w3.org/2000/svg"><path d="M380.7250974132208,277.6758381080985 L380.6929503826828,223.82744953226768 M-88.9234906767702,548.3764092478164 L-89.75264300691731,494.0812800649138 M380.7250974132208,277.6758381080985 L-88.9234906767702,548.3764092478164 M380.6929503826828,223.82744953226768 L-89.75264300691731,494.0812800649138 M419.2749025867791,277.6758381080985 L419.3070496173171,223.82744953226768 M419.2749025867791,277.6758381080985 L380.7250974132208,277.6758381080985 M419.3070496173171,223.82744953226768 L380.6929503826828,223.82744953226768 M-42.35722594173188,576.1725504677322 L-43.10868215794096,521.8324060164896 M-88.9234906767702,548.3764092478164 L-42.35722594173188,576.1725504677322 M-89.75264300691731,494.0812800649138 L-43.10868215794096,521.8324060164896 M-42.35722594173188,576.1725504677322 L399.9999999999999,320.35111793808125 M399.9999999999999,320.35111793808125 L842.3572259417317,576.1725504677323 M842.3572259417317,576.1725504677323 L888.9234906767701,548.3764092478164 M888.9234906767701,548.3764092478164 L419.2749025867791,277.6758381080985 M253.72508924237405,377.86558929296166 L251.1055710008,376.6696133178701 M251.1055710008,376.6696133178701 L248.06599881274644,375.8738134235013 M248.06599881274644,375.8738134235013 L244.7828315574031,375.52431952679694 M244.7828315574031,375.52431952679694 L241.44661012214647,375.641385163216 M241.44661012214647,375.641385163216 L238.25095654334126,376.2182210203903 M238.25095654334126,376.2182210203903 L235.38134110463224,377.22140480508995 M235.38134110463224,377.22140480508995 L233.0044013348628,378.59278168167236 M233.0044013348628,378.59278168167236 L231.25829398834946,380.25280433133725 M231.25829398834946,380.25280433133725 L230.24462218147423,382.1051440389294 M230.24462218147423,382.1051440389294 L230.0225124845145,384.0422523651134 M230.0225124845145,384.0422523651134 L230.6051619645049,385.95156433048237 M230.6051619645049,385.95156433048237 L231.9589728791593,387.7220612585306 M231.9589728791593,387.7220612585306 L234.00544938694975,389.2507286718133 M234.00544938694975,389.2507286718133 L236.62573782919955,390.44856090614206 M236.62573782919955,390.44856090614206 L239.66747988586522,391.24579181681895 M239.66747988586522,391.24579181681895 L242.95371959343086,391.5959636534383 M242.95371959343086,391.5959636534383 L246.29321220418686,391.4786675722331 M246.29321220418686,391.4786675722331 L249.49158628630147,390.9007456878544 M249.49158628630147,390.9007456878544 L252.3627483334578,389.89586907395676 M252.3627483334578,389.89586907395676 L254.73970649936862,388.5225803733724 M254.73970649936862,388.5225803733724 L256.48429981549,386.8608648956271 M256.48429981549,386.8608648956271 L257.495272019991,385.00743915535 M257.495272019991,385.00743915535 L257.7141149771306,383.0701003840659 M257.7141149771306,383.0701003840659 L257.1283799985639,381.1614663568786 M257.1283799985639,381.1614663568786 L255.7723716753099,379.39240044212954 M255.7723716753099,379.39240044212954 L253.72508924237405,377.86558929296166 M546.2749107576258,377.86558929296166 L544.2276283246899,379.39240044212954 M544.2276283246899,379.39240044212954 L542.871620001436,381.1614663568786 M542.871620001436,381.1614663568786 L542.2858850228693,383.070100384066 M542.2858850228693,383.070100384066 L542.504727980009,385.00743915535 M542.504727980009,385.00743915535 L543.5157001845098,386.8608648956271 M543.5157001845098,386.8608648956271 L545.2602935006312,388.5225803733724 M545.2602935006312,388.5225803733724 L547.6372516665422,389.89586907395676 M547.6372516665422,389.89586907395676 L550.5084137136985,390.9007456878545 M550.5084137136985,390.9007456878545 L553.7067877958129,391.4786675722332 M553.7067877958129,391.4786675722332 L557.0462804065689,391.5959636534383 M557.0462804065689,391.5959636534383 L560.3325201141347,391.24579181681895 M560.3325201141347,391.24579181681895 L563.3742621708004,390.44856090614206 M563.3742621708004,390.44856090614206 L565.9945506130503,389.2507286718133 M565.9945506130503,389.2507286718133 L568.0410271208407,387.7220612585306 M568.0410271208407,387.7220612585306 L569.394838035495,385.95156433048237 M569.394838035495,385.95156433048237 L569.9774875154853,384.0422523651134 M569.9774875154853,384.0422523651134 L569.7553778185256,382.1051440389294 M569.7553778185256,382.1051440389294 L568.7417060116504,380.25280433133725 M568.7417060116504,380.25280433133725 L566.9955986651371,378.5927816816725 M566.9955986651371,378.5927816816725 L564.6186588953676,377.22140480508995 M564.6186588953676,377.22140480508995 L561.7490434566585,376.2182210203903 M561.7490434566585,376.2182210203903 L558.5533898778533,375.641385163216 M558.5533898778533,375.641385163216 L555.2171684425966,375.524319526797 M555.2171684425966,375.524319526797 L551.9340011872534,375.8738134235013 M551.9340011872534,375.8738134235013 L548.8944289991998,376.6696133178701 M548.8944289991998,376.6696133178701 L546.2749107576258,377.86558929296166 M704.0494291229891,468.9567499424676 L702.0055709638118,470.5007522036209 M702.0055709638118,470.5007522036209 L700.6592491957672,472.2897470341625 M700.6592491957672,472.2897470341625 L700.0888913741708,474.2198847003357 M700.0888913741708,474.2198847003357 L700.327924090268,476.17906011662546 M700.327924090268,476.17906011662546 L701.362716730139,478.0533794454217 M701.362716730139,478.0533794454217 L703.1333551521134,479.73381614602874 M703.1333551521134,479.73381614602874 L705.5371051437307,481.1225838365418 M705.5371051437307,481.1225838365418 L708.4342226232932,482.1387807292907 M708.4342226232932,482.1387807292907 L711.6562400694395,482.7232244475837 M711.6562400694395,482.7232244475837 L715.0156630262788,482.8418498205625 M715.0156630262788,482.8418498205625 L718.3169468916751,482.48773048802093 M718.3169468916751,482.48773048802093 L721.3679823468701,481.68151269352825 M721.3679823468701,481.68151269352825 L723.9912603780053,480.4701715856854 M723.9912603780053,480.4701715856854 L726.0342852816837,478.9242816061944 M726.0342852816837,478.9242816061944 L727.3783707987359,477.133831505333 M727.3783707987359,477.133831505333 L727.9456016823799,475.203004407433 M727.9456016823799,475.203004407433 L727.7032676733875,473.24406334116736 M727.7032676733875,473.24406334116736 L726.6657556942873,471.3708484577305 M726.6657556942873,471.3708484577305 L724.8936028463106,469.6921332708738 M724.8936028463106,469.6921332708738 L722.489890270959,468.30530980748085 M722.489890270959,468.30530980748085 L719.5943534779242,467.2908344226238 M719.5943534779242,467.2908344226238 L716.3750978814417,466.7074951511212 M716.3750978814417,466.7074951511212 L713.0189852386943,466.5891041426237 M713.0189852386943,466.5891041426237 L709.7208017756311,466.9425340443755 M709.7208017756311,466.9425340443755 L706.6719465579242,467.74729656717045 M706.6719465579242,467.74729656717045 L704.0494291229891,468.9567499424676 M95.95057087701082,468.9567499424676 L93.32805344207571,467.74729656717034 M93.32805344207571,467.74729656717034 L90.27919822436883,466.9425340443754 M90.27919822436883,466.9425340443754 L86.98101476130557,466.5891041426237 M86.98101476130557,466.5891041426237 L83.62490211855828,466.7074951511212 M83.62490211855828,466.7074951511212 L80.40564652207564,467.2908344226237 M80.40564652207564,467.2908344226237 L77.51010972904089,468.30530980748085 M77.51010972904089,468.30530980748085 L75.10639715368922,469.6921332708737 M75.10639715368922,469.6921332708737 L73.33424430571245,471.3708484577304 M73.33424430571245,471.3708484577304 L72.29673232661247,473.24406334116736 M72.29673232661247,473.24406334116736 L72.05439831761987,475.203004407433 M72.05439831761987,475.203004407433 L72.62162920126394,477.13383150533286 M72.62162920126394,477.13383150533286 L73.96571471831635,478.9242816061944 M73.96571471831635,478.9242816061944 L76.0087396219945,480.4701715856854 M76.0087396219945,480.4701715856854 L78.63201765312982,481.68151269352825 M78.63201765312982,481.68151269352825 L81.68305310832466,482.4877304880208 M81.68305310832466,482.4877304880208 L84.9843369737211,482.8418498205624 M84.9843369737211,482.8418498205624 L88.3437599305604,482.7232244475837 M88.3437599305604,482.7232244475837 L91.56577737670665,482.1387807292907 M91.56577737670665,482.1387807292907 L94.46289485626909,481.1225838365417 M94.46289485626909,481.1225838365417 L96.86664484788668,479.73381614602874 M96.86664484788668,479.73381614602874 L98.63728326986092,478.05337944542157 M98.63728326986092,478.05337944542157 L99.67207590973192,476.17906011662535 M99.67207590973192,476.17906011662535 L99.91110862582894,474.21988470033557 M99.91110862582894,474.21988470033557 L99.34075080423264,472.2897470341625 M99.34075080423264,472.2897470341625 L97.99442903618808,470.5007522036209 M97.99442903618808,470.5007522036209 L95.95057087701082,468.9567499424676 M889.7526430069174,494.0812800649138 L419.3070496173171,223.82744953226768 M-43.10868215794096,521.8324060164896 L399.9999999999999,266.4312966457269 M843.1086821579408,521.8324060164896 L889.7526430069174,494.0812800649138 M399.9999999999999,266.4312966457269 L843.1086821579408,521.8324060164896 M353.3170975566184,248.4930863709589 L259.4818556620448,302.42797335352947 M384.4216847290387,266.4312966457269 L353.3170975566184,248.4930863709589 M259.4818556620448,302.42797335352947 L290.58585952308107,320.48670881600094 M290.58585952308107,320.48670881600094 L384.4216847290387,266.4312966457269 M415.5783152709612,266.4312966457269 L509.41414047691876,320.48670881600094 M509.41414047691876,320.48670881600094 L540.5181443379552,302.42797335352947 M540.5181443379552,302.42797335352947 L446.68290244338147,248.4930863709589 M446.68290244338147,248.4930863709589 L415.5783152709612,266.4312966457269 M253.4796104669785,323.85009166649087 L255.53030583021456,325.37437224982597 M255.53030583021456,325.37437224982597 L256.88856382856846,327.1405066833546 M256.88856382856846,327.1405066833546 L257.4752538431123,329.0459786790524 M257.4752538431123,329.0459786790524 L257.25601489268695,330.98010863337333 M257.25601489268695,330.98010863337333 L256.2433177572618,332.8304652676934 M256.2433177572618,332.8304652676934 L254.49577001904754,334.48942969775317 M254.49577001904754,334.48942969775317 L252.11479920036862,335.86044528519375 M252.11479920036862,335.86044528519375 L249.23879951032023,336.8636588407383 M249.23879951032023,336.8636588407383 L246.03504438483466,337.4406243660413 M246.03504438483466,337.4406243660413 L242.6899408119115,337.5577263512848 M242.6899408119115,337.5577263512848 L239.39818727430574,337.2081339707449 M239.39818727430574,337.2081339707449 L236.35134984221952,336.4122223934253 M236.35134984221952,336.4122223934253 L233.7266812178309,335.21637269238323 M233.7266812178309,335.21637269238323 L231.67679451806055,333.69023580853184 M231.67679451806055,333.69023580853184 L230.32074133567556,331.92267033364243 M230.32074133567556,331.92267033364243 L229.7371471992088,330.01652038646904 M229.7371471992088,330.01652038646904 L229.95966386327447,328.08262088176696 M229.95966386327447,328.08262088176696 L230.97506965521782,326.23335030142846 M230.97506965521782,326.23335030142846 L232.72413648413647,324.5760787326452 M232.72413648413647,324.5760787326452 L235.1050888138691,323.206975006698 M235.1050888138691,323.206975006698 L237.9795366708078,322.2054543135487 M237.9795366708078,322.2054543135487 L241.1805621333978,321.6295748367482 M241.1805621333978,321.6295748367482 L244.52238353462278,321.51270330080996 M244.52238353462278,321.51270330080996 L247.8110543063211,321.8616177281398 M247.8110543063211,321.8616177281398 L250.85571460136072,322.656098261088 M250.85571460136072,322.656098261088 L253.4796104669785,323.85009166649087 M546.5203895330214,323.85009166649087 L549.1442853986391,322.656098261088 M549.1442853986391,322.656098261088 L552.1889456936788,321.8616177281399 M552.1889456936788,321.8616177281399 L555.4776164653772,321.51270330080996 M555.4776164653772,321.51270330080996 L558.8194378666021,321.6295748367482 M558.8194378666021,321.6295748367482 L562.0204633291921,322.2054543135488 M562.0204633291921,322.2054543135488 L564.8949111861307,323.206975006698 M564.8949111861307,323.206975006698 L567.2758635158634,324.57607873264527 M567.2758635158634,324.57607873264527 L569.024930344782,326.2333503014286 M569.024930344782,326.2333503014286 L570.0403361367255,328.082620881767 M570.0403361367255,328.082620881767 L570.262852800791,330.01652038646904 M570.262852800791,330.01652038646904 L569.6792586643244,331.92267033364243 M569.6792586643244,331.92267033364243 L568.3232054819393,333.69023580853195 M568.3232054819393,333.69023580853195 L566.2733187821689,335.21637269238335 M566.2733187821689,335.21637269238335 L563.6486501577804,336.4122223934254 M563.6486501577804,336.4122223934254 L560.6018127256941,337.2081339707449 M560.6018127256941,337.2081339707449 L557.3100591880884,337.5577263512848 M557.3100591880884,337.5577263512848 L553.9649556151653,337.4406243660413 M553.9649556151653,337.4406243660413 L550.7612004896796,336.86365884073837 M550.7612004896796,336.86365884073837 L547.8852007996313,335.86044528519375 M547.8852007996313,335.86044528519375 L545.5042299809525,334.48942969775317 M545.5042299809525,334.48942969775317 L543.756682242738,332.8304652676935 M543.756682242738,332.8304652676935 L542.7439851073129,330.98010863337345 M542.7439851073129,330.98010863337345 L542.5247461568877,329.0459786790524 M542.5247461568877,329.0459786790524 L543.1114361714313,327.1405066833546 M543.1114361714313,327.1405066833546 L544.4696941697853,325.37437224982597 M544.4696941697853,325.37437224982597 L546.5203895330214,323.85009166649087 M196.5747655378738,338.5858893746929 L101.68401442360448,393.1274649459423 M227.67798567424404,356.7256510557138 L196.5747655378738,338.5858893746929 M101.68401442360448,393.1274649459423 L132.7854560552446,411.3897922744484 M132.7854560552446,411.3897922744484 L227.67798567424404,356.7256510557138 M95.43744423441092,414.79111882668724 L97.48470336736818,416.3325910877919 M97.48470336736818,416.3325910877919 L98.83324171410277,418.11865508971607 M98.83324171410277,418.11865508971607 L99.4045022624565,420.04563144091287 M99.4045022624565,420.04563144091287 L99.16500503241593,422.0015987692668 M99.16500503241593,422.0015987692668 L98.12840671661905,423.8728497015019 M98.12840671661905,423.8728497015019 L96.35472562682264,425.5505360225088 M96.35472562682264,425.5505360225088 L93.94687230345312,426.9370311499214 M93.94687230345312,426.9370311499214 L91.04482938906989,427.95156540248706 M91.04482938906989,427.95156540248706 L87.81735105067133,428.53505298578307 M87.81735105067133,428.53505298578307 L84.45224992385573,428.65348429929645 M84.45224992385573,428.65348429929645 L81.14540160444062,428.29994427983536 M81.14540160444062,428.29994427983536 L78.08923966709847,427.4950454947576 M78.08923966709847,427.4950454947576 L75.46157169710762,426.28568644916754 M75.46157169710762,426.28568644916754 L73.41514869703366,424.74232637929333 M73.41514869703366,424.74232637929333 L72.06885420575816,422.9548070373344 M72.06885420575816,422.9548070373344 L71.50073118477945,421.0271412213839 M71.50073118477945,421.0271412213839 L71.7435408562252,419.0714082542804 M71.7435408562252,419.0714082542804 L72.7828676647843,417.201261820313 M72.7828676647843,417.201261820313 L74.55806824220474,415.52529709552607 M74.55806824220474,415.52529709552607 L76.96588395948606,414.14074628837295 M76.96588395948606,414.14074628837295 L79.86634078956331,413.12793362616935 M79.86634078956331,413.12793362616935 L83.09104790909748,412.54555054257355 M83.09104790909748,412.54555054257355 L86.4528275275432,412.4273536047691 M86.4528275275432,412.4273536047691 L89.75656498982374,412.78020416041227 M89.75656498982374,412.78020416041227 L92.81053936938292,413.5836476040761 M92.81053936938292,413.5836476040761 L95.43744423441092,414.79111882668724 M38.06731716756667,429.6932509708113 L-57.896853269507346,484.8518095506987 M69.1671648713683,448.0379801490151 L38.06731716756667,429.6932509708113 M-57.896853269507346,484.8518095506987 L-26.80001985001087,503.32119115663374 M-26.80001985001087,503.32119115663374 L69.1671648713683,448.0379801490151 M572.3220143257558,356.72565105571385 L667.2145439447552,411.3897922744484 M603.4252344621259,338.5858893746929 L572.3220143257558,356.72565105571385 M667.2145439447552,411.3897922744484 L698.3159855763952,393.1274649459423 M698.3159855763952,393.1274649459423 L603.4252344621259,338.5858893746929 M704.562555765589,414.79111882668724 L707.1894606306168,413.5836476040761 M707.1894606306168,413.5836476040761 L710.2434350101762,412.78020416041227 M710.2434350101762,412.78020416041227 L713.5471724724566,412.4273536047691 M713.5471724724566,412.4273536047691 L716.9089520909024,412.54555054257366 M716.9089520909024,412.54555054257366 L720.1336592104365,413.12793362616947 M720.1336592104365,413.12793362616947 L723.0341160405137,414.14074628837295 M723.0341160405137,414.14074628837295 L725.4419317577951,415.52529709552607 M725.4419317577951,415.52529709552607 L727.2171323352156,417.201261820313 M727.2171323352156,417.201261820313 L728.2564591437747,419.0714082542804 M728.2564591437747,419.0714082542804 L728.4992688152204,421.027141221384 M728.4992688152204,421.027141221384 L727.9311457942417,422.9548070373345 M727.9311457942417,422.9548070373345 L726.5848513029662,424.74232637929344 M726.5848513029662,424.74232637929344 L724.5384283028923,426.28568644916766 M724.5384283028923,426.28568644916766 L721.9107603329014,427.4950454947576 M721.9107603329014,427.4950454947576 L718.8545983955592,428.29994427983536 M718.8545983955592,428.29994427983536 L715.5477500761442,428.65348429929645 M715.5477500761442,428.65348429929645 L712.1826489493285,428.5350529857832 M712.1826489493285,428.5350529857832 L708.9551706109298,427.95156540248706 M708.9551706109298,427.95156540248706 L706.0531276965467,426.9370311499215 M706.0531276965467,426.9370311499215 L703.6452743731772,425.5505360225088 M703.6452743731772,425.5505360225088 L701.8715932833809,423.872849701502 M701.8715932833809,423.872849701502 L700.834994967584,422.0015987692668 M700.834994967584,422.0015987692668 L700.5954977375434,420.04563144091287 M700.5954977375434,420.04563144091287 L701.166758285897,418.1186550897162 M701.166758285897,418.1186550897162 L702.5152966326316,416.3325910877919 M702.5152966326316,416.3325910877919 L704.562555765589,414.79111882668724 M730.8328351286316,448.0379801490152 L826.8000198500108,503.32119115663386 M761.9326828324331,429.6932509708114 L730.8328351286316,448.0379801490152 M826.8000198500108,503.32119115663386 L857.8968532695071,484.8518095506987 M857.8968532695071,484.8518095506987 L761.9326828324331,429.6932509708114 M888.9234906767701,548.3764092478164 L889.7526430069174,494.0812800649138 M399.9999999999999,320.35111793808125 L399.9999999999999,266.4312966457269 M842.3572259417317,576.1725504677323 L843.1086821579408,521.8324060164896 M253.72508924237405,377.86558929296166 L253.4796104669785,323.85009166649087 M546.2749107576258,377.86558929296166 L546.5203895330214,323.85009166649087 M704.0494291229891,468.9567499424676 L704.562555765589,414.79111882668724 M95.95057087701082,468.9567499424676 L95.43744423441092,414.79111882668724 M353.36902514554316,284.43959489642606 L353.3170975566184,248.4930863709589 M259.63868394813625,338.4346433059987 L259.4818556620448,302.42797335352947 M353.36902514554316,284.43959489642606 L259.63868394813625,338.4346433059987 M384.43903251887275,302.3978589554376 L384.4216847290387,266.4312966457269 M384.43903251887275,302.3978589554376 L353.36902514554316,284.43959489642606 M290.70810995936813,356.51343232655955 L290.58585952308107,320.48670881600094 M259.63868394813625,338.4346433059987 L290.70810995936813,356.51343232655955 M290.70810995936813,356.51343232655955 L384.43903251887275,302.3978589554376 M415.5609674811271,302.3978589554376 L415.5783152709612,266.4312966457269 M509.29189004063176,356.51343232655955 L509.41414047691876,320.48670881600094 M415.5609674811271,302.3978589554376 L509.29189004063176,356.51343232655955 M540.3613160518635,338.4346433059988 L540.5181443379552,302.42797335352947 M509.29189004063176,356.51343232655955 L540.3613160518635,338.4346433059988 M446.63097485445667,284.43959489642606 L446.68290244338147,248.4930863709589 M540.3613160518635,338.4346433059988 L446.63097485445667,284.43959489642606 M446.63097485445667,284.43959489642606 L415.5609674811271,302.3978589554376 M196.802310542865,374.6326660652872 L196.5747655378738,338.5858893746929 M102.01882473289345,429.23439736549324 L101.68401442360448,393.1274649459423 M196.802310542865,374.6326660652872 L102.01882473289345,429.23439736549324 M227.87095545512398,392.792480394695 L227.67798567424404,356.7256510557138 M227.87095545512398,392.792480394695 L196.802310542865,374.6326660652872 M133.08569711585665,447.51677481207923 L132.7854560552446,411.3897922744484 M102.01882473289345,429.23439736549324 L133.08569711585665,447.51677481207923 M133.08569711585665,447.51677481207923 L227.87095545512398,392.792480394695 M38.47444054533099,465.8402824666439 L38.06731716756667,429.6932509708113 M-57.3800396653657,521.05897934891 L-57.896853269507346,484.8518095506987 M38.47444054533099,465.8402824666439 L-57.3800396653657,521.05897934891 M69.53972437038698,484.20505928259274 L69.1671648713683,448.0379801490151 M69.53972437038698,484.20505928259274 L38.47444054533099,465.8402824666439 M-26.317759940575797,539.5484036533675 L-26.80001985001087,503.32119115663374 M-57.3800396653657,521.05897934891 L-26.317759940575797,539.5484036533675 M-26.317759940575797,539.5484036533675 L69.53972437038698,484.20505928259274 M572.1290445448758,392.7924803946951 L572.3220143257558,356.72565105571385 M666.9143028841431,447.51677481207935 L667.2145439447552,411.3897922744484 M572.1290445448758,392.7924803946951 L666.9143028841431,447.51677481207935 M603.1976894571349,374.6326660652872 L603.4252344621259,338.5858893746929 M603.1976894571349,374.6326660652872 L572.1290445448758,392.7924803946951 M697.9811752671064,429.23439736549335 L698.3159855763952,393.1274649459423 M666.9143028841431,447.51677481207935 L697.9811752671064,429.23439736549335 M697.9811752671064,429.23439736549335 L603.1976894571349,374.6326660652872 M730.4602756296129,484.20505928259286 L730.8328351286316,448.0379801490152 M826.3177599405758,539.5484036533676 L826.8000198500108,503.32119115663386 M730.4602756296129,484.20505928259286 L826.3177599405758,539.5484036533676 M761.5255594546688,465.840282466644 L761.9326828324331,429.6932509708114 M761.5255594546688,465.840282466644 L730.4602756296129,484.20505928259286 M857.3800396653655,521.0589793489102 L857.8968532695071,484.8518095506987 M826.3177599405758,539.5484036533676 L857.3800396653655,521.0589793489102 M857.3800396653655,521.0589793489102 L761.5255594546688,465.840282466644" stroke="black"  stroke-width="4"  fill="red"/></svg>