<svg viewBox="0 0 800 800" xmlns="http://www.w3.org/2000/svg"><path d="M834.9241254501925,550.9367508102551 L834.9241302907503,550.936379115507 M882.4436132308616,523.0363551540628 L882.4436185913461,523.0359837688014 M834.9241254501925,550.9367508102551 L882.4436132308616,523.0363551540628 M834.9241302907503,550.936379115507 L882.4436185913461,523.0359837688014 M400.00000000000006,249.06361748096072 L400.00000000000006,249.06324918974488 M882.4436132308616,523.0363551540628 L400.00000000000006,249.06361748096072 M882.4436185913461,523.0359837688014 L400.00000000000006,249.06324918974488 M-82.4436132308615,523.0363551540627 L-82.44361859134608,523.0359837688013 M400.00000000000006,249.06361748096072 L-82.4436132308615,523.0363551540627 M400.00000000000006,249.06324918974488 L-82.44361859134608,523.0359837688013 M-34.92412545019238,550.936750810255 L-34.9241302907501,550.9363791155068 M-82.4436132308615,523.0363551540627 L-34.92412545019238,550.936750810255 M-82.44361859134608,523.0359837688013 L-34.9241302907501,550.9363791155068 M400.00000000000006,303.1371841269677 L400.00000000000006,303.13681521717945 M-34.92412545019238,550.936750810255 L400.00000000000006,303.1371841269677 M-34.9241302907501,550.9363791155068 L400.00000000000006,303.13681521717945 M400.00000000000006,303.1371841269677 L834.9241254501925,550.9367508102551 M400.00000000000006,303.13681521717945 L834.9241302907503,550.936379115507" stroke="black"  stroke-width="4"  fill="red"/></svg>